# xmcd CD database file
#
# Track frame offsets:
#	150
#	17211
#	35485
#	54046
#	75058
#	95282
#	111341
#	131031
#	145853
#	165714
#	190315
#	213224
#
# Disc length: 3080 seconds
#
# Revision: 0
# Processed by: cddbd v1.5.1PL0 Copyright (c) Steve Scherf et al.
# Submitted via: CDex 1.51
#
DISCID=950c060c
DTITLE=JK - III
DYEAR=2004
DGENRE=Rhythmic Soul
TTITLE0=Hasambe feat. Danny
TTITLE1=Chichetekelo
TTITLE2=Forever fret. Nalu
TTITLE3=Osanisiya
TTITLE4=Nakupa
TTITLE5=somone nomba
TTITLE6=Leka nsambe feat. Danny
TTITLE7=Ba neighbour
TTITLE8=Inshiku tashichela mumo
TTITLE9=My sweet feat. Leo
TTITLE10=Ni satana ewa lenga
TTITLE11=Mwana wangu takondwera
EXTD=YEAR: 2004
EXTT0=
EXTT1=
EXTT2=
EXTT3=
EXTT4=
EXTT5=
EXTT6=
EXTT7=
EXTT8=
EXTT9=
EXTT10=
EXTT11=
PLAYORDER=
